<svg width="16" height="16" viewBox="0 0 16 16" fill="none" xmlns="http://www.w3.org/2000/svg">
<path d="M8.25 1.5C6.59296 1.50182 5.0043 2.16088 3.83259 3.33259C2.66088 4.5043 2.00182 6.09296 2 7.75V13C2 13.2652 2.10536 13.5196 2.29289 13.7071C2.48043 13.8946 2.73478 14 3 14H8.25C9.9076 14 11.4973 13.3415 12.6694 12.1694C13.8415 10.9973 14.5 9.4076 14.5 7.75C14.5 6.0924 13.8415 4.50268 12.6694 3.33058C11.4973 2.15848 9.9076 1.5 8.25 1.5ZM8.25 13H3V7.75C3 6.71165 3.30791 5.69661 3.88478 4.83326C4.46166 3.9699 5.2816 3.29699 6.24091 2.89963C7.20022 2.50227 8.25582 2.3983 9.27422 2.60088C10.2926 2.80345 11.2281 3.30346 11.9623 4.03769C12.6965 4.77191 13.1966 5.70738 13.3991 6.72578C13.6017 7.74418 13.4977 8.79978 13.1004 9.75909C12.703 10.7184 12.0301 11.5383 11.1667 12.1152C10.3034 12.6921 9.28835 13 8.25 13Z" fill="#6155F5"/>
</svg>
